<?xml version="1.0" encoding="utf-8"?>
<!-- Generator: Adobe Illustrator 14.0.0, SVG Export Plug-In . SVG Version: 6.00 Build 43363)  -->
<!DOCTYPE svg PUBLIC "-//W3C//DTD SVG 1.1//EN" "http://www.w3.org/Graphics/SVG/1.1/DTD/svg11.dtd">
<svg version="1.1" id="Layer_1" xmlns="http://www.w3.org/2000/svg" xmlns:xlink="http://www.w3.org/1999/xlink" x="0px" y="0px"
	 width="37px" height="37px" viewBox="0 0 37 37" enable-background="new 0 0 37 37" xml:space="preserve">
<g>
	
		<path fill-rule="evenodd" clip-rule="evenodd" fill="#98D5CC" stroke="#1A6A7C" stroke-width="1.5541" stroke-miterlimit="22.9256" d="
		M2.26,18.5c0-8.97,7.271-16.24,16.24-16.24c8.97,0,16.24,7.271,16.24,16.24S27.47,34.74,18.5,34.74
		C9.531,34.74,2.26,27.47,2.26,18.5L2.26,18.5z"/>
	
		<path fill="#FFFFFF" stroke="#1A6A7C" stroke-width="1.5541" stroke-linecap="round" stroke-linejoin="round" stroke-miterlimit="22.9256" d="
		M26.478,15.465c1.676,0,3.034,1.359,3.034,3.035s-1.358,3.035-3.034,3.035h-8.628l2.942,2.941c1.186,1.186,1.186,3.107,0,4.292
		c-1.185,1.185-3.106,1.185-4.292,0l-8.11-8.11c-0.059-0.059-0.116-0.119-0.171-0.184c-0.202-0.234-0.353-0.481-0.479-0.764
		C7.578,19.339,7.488,18.93,7.488,18.5s0.09-0.839,0.251-1.21c0.127-0.283,0.277-0.529,0.48-0.766
		c0.055-0.063,0.112-0.124,0.171-0.183l8.11-8.11c1.185-1.186,3.107-1.186,4.292,0c1.186,1.185,1.186,3.106,0,4.291l-2.942,2.942
		H26.478L26.478,15.465z"/>
</g>
</svg>
