<?xml version="1.0" encoding="utf-8"?>
<!-- Generator: Adobe Illustrator 14.0.0, SVG Export Plug-In . SVG Version: 6.00 Build 43363)  -->
<!DOCTYPE svg PUBLIC "-//W3C//DTD SVG 1.1//EN" "http://www.w3.org/Graphics/SVG/1.1/DTD/svg11.dtd">
<svg version="1.1" id="Layer_1" xmlns="http://www.w3.org/2000/svg" xmlns:xlink="http://www.w3.org/1999/xlink" x="0px" y="0px"
	 width="37px" height="37px" viewBox="0 0 37 37" enable-background="new 0 0 37 37" xml:space="preserve">
<g>
	
		<path fill-rule="evenodd" clip-rule="evenodd" fill="#98D5CC" stroke="#1A6A7C" stroke-width="1.5541" stroke-miterlimit="22.9256" d="
		M34.74,18.5c0,8.97-7.271,16.24-16.24,16.24c-8.969,0-16.24-7.271-16.24-16.24S9.531,2.26,18.5,2.26
		C27.47,2.26,34.74,9.53,34.74,18.5L34.74,18.5z"/>
	
		<path fill="#FFFFFF" stroke="#1A6A7C" stroke-width="1.5541" stroke-linecap="round" stroke-linejoin="round" stroke-miterlimit="22.9256" d="
		M10.523,21.535c-1.677,0-3.035-1.359-3.035-3.035s1.358-3.035,3.035-3.035h8.628l-2.942-2.942c-1.186-1.185-1.186-3.106,0-4.291
		c1.185-1.186,3.106-1.186,4.292,0l8.109,8.11c0.06,0.059,0.116,0.119,0.171,0.183c0.202,0.235,0.354,0.482,0.479,0.765
		c0.162,0.372,0.252,0.781,0.252,1.211s-0.09,0.839-0.251,1.209c-0.127,0.284-0.277,0.529-0.48,0.766
		c-0.055,0.064-0.111,0.125-0.171,0.184l-8.109,8.11c-1.186,1.185-3.107,1.185-4.292,0c-1.186-1.185-1.186-3.106,0-4.292
		l2.942-2.941H10.523L10.523,21.535z"/>
</g>
</svg>
