<?xml version="1.0" encoding="utf-8"?>
<!-- Generator: Adobe Illustrator 14.0.0, SVG Export Plug-In . SVG Version: 6.00 Build 43363)  -->
<!DOCTYPE svg PUBLIC "-//W3C//DTD SVG 1.1//EN" "http://www.w3.org/Graphics/SVG/1.1/DTD/svg11.dtd">
<svg version="1.1" id="Layer_1" xmlns="http://www.w3.org/2000/svg" xmlns:xlink="http://www.w3.org/1999/xlink" x="0px" y="0px"
	 width="37px" height="37px" viewBox="0 0 37 37" enable-background="new 0 0 37 37" xml:space="preserve">
<g>
		<path fill-rule="evenodd" clip-rule="evenodd" fill="#98D5CC" stroke="#1A6A7C" stroke-width="1.5541" stroke-miterlimit="22.9256" d="
		M18.5,2.26c8.969,0,16.24,7.271,16.24,16.24S27.469,34.74,18.5,34.74c-8.97,0-16.24-7.271-16.24-16.24S9.53,2.26,18.5,2.26
		L18.5,2.26z"/>
	
		<path fill="#FFFFFF" stroke="#1A6A7C" stroke-width="1.5541" stroke-linecap="round" stroke-linejoin="round" stroke-miterlimit="22.9256" d="
		M21.535,26.477c0,1.677-1.359,3.035-3.035,3.035c-1.676,0-3.035-1.358-3.035-3.035V17.85l-2.942,2.941
		c-1.185,1.186-3.107,1.186-4.292,0c-1.185-1.186-1.185-3.106,0-4.291l8.11-8.11c0.059-0.06,0.12-0.116,0.184-0.171
		c0.235-0.202,0.481-0.354,0.764-0.479c0.373-0.162,0.781-0.252,1.211-0.252s0.839,0.09,1.209,0.251
		c0.283,0.127,0.529,0.277,0.766,0.48C20.539,8.273,20.6,8.33,20.658,8.39l8.11,8.11c1.185,1.185,1.185,3.105,0,4.291
		c-1.186,1.186-3.106,1.186-4.292,0l-2.941-2.941V26.477L21.535,26.477z"/>
</g>
</svg>
